# xmcd
#
# Track frame offsets: 
#        150
#        4606
#        30653
#        41628
#        63390
#        74396
#        91786
#        106435
#        129193
#        143153
#        157053
#        167257
#        189444
#        203251
#        218181
#        231516
#        241850
#        258330
#        273179
#        294377
#        321215
#
# Disc length: 4438 seconds
#
# Revision: 2
# Processed by: cddbd v1.5.1PL0 Copyright (c) Steve Scherf et al.
# Submitted via: ExactAudioCopy v0.95b3
#
DISCID=1d115415
DTITLE=John Denver - Greatest Hits
DYEAR=1995
DGENRE=Country
TTITLE0=The Music Is You
TTITLE1=Farewel Andromeda
TTITLE2=Mother Nature's Son
TTITLE3=Summer
TTITLE4=Toledo
TTITLE5=Matthew
TTITLE6=Rocky Mountain Suite
TTITLE7=Sweet Surrender
TTITLE8=Grandma's Feather Bed
TTITLE9=Annie's Song
TTITLE10=The Eagle And The Hawk
TTITLE11=My Sweet Lady
TTITLE12=Annie's Other Song
TTITLE13=Rhymes and Reasons
TTITLE14=Forest Lawn
TTITLE15=Blue Grass
TTITLE16=Thank God I'm A Country Boy
TTITLE17=Take Me Home, Country Roads
TTITLE18=Poems, Prayers And Promises
TTITLE19=Rocky Mountain High
TTITLE20=This Old Guitar
EXTD=
EXTT0=
EXTT1=
EXTT2=
EXTT3=
EXTT4=
EXTT5=
EXTT6=
EXTT7=
EXTT8=
EXTT9=
EXTT10=
EXTT11=
EXTT12=
EXTT13=
EXTT14=
EXTT15=
EXTT16=
EXTT17=
EXTT18=
EXTT19=
EXTT20=
PLAYORDER=
